<svg width="80" height="101" viewBox="0 0 134 147" fill="none" xmlns="http://www.w3.org/2000/svg">
<path d="M61.4167 42.875H94.9167V55.125H61.4167V42.875ZM61.4167 67.375H94.9167V79.625H61.4167V67.375ZM61.4167 91.875H94.9167V104.125H61.4167V91.875ZM39.0833 42.875H50.25V55.125H39.0833V42.875ZM39.0833 67.375H50.25V79.625H39.0833V67.375ZM39.0833 91.875H50.25V104.125H39.0833V91.875ZM112.225 18.375H21.775C18.9833 18.375 16.75 20.825 16.75 23.8875V123.113C16.75 125.562 18.9833 128.625 21.775 128.625H112.225C114.458 128.625 117.25 125.562 117.25 123.113V23.8875C117.25 20.825 114.458 18.375 112.225 18.375ZM106.083 116.375H27.9167V30.625H106.083V116.375Z" fill="#0468AF"/>
</svg>
