<svg width="123" height="110" viewBox="0 0 123 110" fill="none" xmlns="http://www.w3.org/2000/svg">
<mask id="path-1-inside-1" fill="white">
<path fill-rule="evenodd" clip-rule="evenodd" d="M120.712 37.8125H4.51259C7.44205 16.5815 32.336 0 62.6121 0C92.8883 0 117.782 16.5815 120.712 37.8125Z"/>
</mask>
<path d="M4.51259 37.8125L0.550131 37.2658L-0.0772314 41.8125H4.51259V37.8125ZM120.712 37.8125V41.8125H125.302L124.674 37.2658L120.712 37.8125ZM4.51259 41.8125H120.712V33.8125H4.51259V41.8125ZM8.47505 38.3592C9.74198 29.1773 15.8184 20.6354 25.5 14.2901C35.1626 7.95724 48.1781 4 62.6121 4V-4C46.7701 -4 32.2005 0.333518 21.1147 7.59914C10.0479 14.8523 2.21266 25.2167 0.550131 37.2658L8.47505 38.3592ZM62.6121 4C77.0462 4 90.0617 7.95724 99.7243 14.2901C109.406 20.6354 115.482 29.1773 116.749 38.3592L124.674 37.2658C123.012 25.2167 115.176 14.8523 104.11 7.59914C93.0238 0.333518 78.4542 -4 62.6121 -4V4Z" fill="#FFCC82" mask="url(#path-1-inside-1)"/>
<mask id="path-3-inside-2" fill="white">
<path fill-rule="evenodd" clip-rule="evenodd" d="M4.2243 98.5417V87.0834H15.6826H109.542H121V98.5417C121 104.87 115.87 110 109.542 110H15.6826C9.35438 110 4.2243 104.87 4.2243 98.5417Z"/>
</mask>
<path d="M4.2243 87.0834V83.0834H0.224297V87.0834H4.2243ZM121 87.0834H125V83.0834H121V87.0834ZM8.2243 98.5417V87.0834H0.224297V98.5417H8.2243ZM4.2243 91.0834H15.6826V83.0834H4.2243V91.0834ZM15.6826 91.0834H109.542V83.0834H15.6826V91.0834ZM109.542 91.0834H121V83.0834H109.542V91.0834ZM117 87.0834V98.5417H125V87.0834H117ZM117 98.5417C117 102.661 113.661 106 109.542 106V114C118.079 114 125 107.079 125 98.5417H117ZM109.542 106H15.6826V114H109.542V106ZM15.6826 106C11.5635 106 8.2243 102.661 8.2243 98.5417H0.224297C0.224297 107.079 7.14524 114 15.6826 114V106Z" fill="#FFCC82" mask="url(#path-3-inside-2)"/>
<path d="M2.0521 52.1361V52.1361C6.86675 47.8551 13.5427 46.3424 19.7423 48.1277L37.6409 53.282" stroke="#FFCC82" stroke-width="4"/>
<path d="M36.4766 53.2813L45.7213 49.7372C55.1486 46.1231 65.5939 46.2078 74.9613 49.9741L83.1869 53.2813" stroke="#FFCC82" stroke-width="4"/>
<path d="M82.0748 53.2812L92.8198 49.1899C102.148 45.6383 112.608 46.7317 121 52.1354V52.1354" stroke="#FFCC82" stroke-width="4"/>
<ellipse cx="25.9112" cy="20.0521" rx="2.78037" ry="2.86458" fill="#FFCC82"/>
<ellipse cx="41.4813" cy="24.6355" rx="2.78037" ry="2.86458" fill="#FFCC82"/>
<ellipse cx="45.9299" cy="10.8855" rx="2.78037" ry="2.86458" fill="#FFCC82"/>
<ellipse cx="58.1636" cy="17.7605" rx="2.78037" ry="2.86458" fill="#FFCC82"/>
<ellipse cx="67.0607" cy="9.73958" rx="2.78037" ry="2.86458" fill="#FFCC82"/>
<ellipse cx="75.9579" cy="22.3437" rx="2.78037" ry="2.86458" fill="#FFCC82"/>
<ellipse cx="84.8551" cy="13.1771" rx="2.78037" ry="2.86458" fill="#FFCC82"/>
<ellipse cx="98.2009" cy="22.3437" rx="2.78037" ry="2.86458" fill="#FFCC82"/>
<mask id="path-16-inside-3" fill="white">
<path fill-rule="evenodd" clip-rule="evenodd" d="M79.0402 67.1666L72.9645 64.1666H11.7396C6.36056 64.1666 2 68.5272 2 73.9062C2 79.2852 6.36057 83.6458 11.7396 83.6458H111.26C116.639 83.6458 121 79.2852 121 73.9062C121 68.5272 116.639 64.1666 111.26 64.1666H102.319L99.2759 67.1666H111.26C114.983 67.1666 118 70.184 118 73.9062C118 77.6284 114.983 80.6458 111.26 80.6458H11.7396C8.01742 80.6458 5 77.6284 5 73.9062C5 70.184 8.01741 67.1666 11.7396 67.1666H79.0402Z"/>
</mask>
<path fill-rule="evenodd" clip-rule="evenodd" d="M79.0402 67.1666L72.9645 64.1666H11.7396C6.36056 64.1666 2 68.5272 2 73.9062C2 79.2852 6.36057 83.6458 11.7396 83.6458H111.26C116.639 83.6458 121 79.2852 121 73.9062C121 68.5272 116.639 64.1666 111.26 64.1666H102.319L99.2759 67.1666H111.26C114.983 67.1666 118 70.184 118 73.9062C118 77.6284 114.983 80.6458 111.26 80.6458H11.7396C8.01742 80.6458 5 77.6284 5 73.9062C5 70.184 8.01741 67.1666 11.7396 67.1666H79.0402Z" fill="#FFCC82"/>
<path d="M79.0402 67.1666V71.1666L80.8112 63.58L79.0402 67.1666ZM72.9645 64.1666L74.7354 60.58L73.8982 60.1666H72.9645V64.1666ZM102.319 64.1666V60.1666H100.679L99.5105 61.3182L102.319 64.1666ZM99.2759 67.1666L96.4676 64.3182L89.5212 71.1666H99.2759V67.1666ZM80.8112 63.58L74.7354 60.58L71.1935 67.7532L77.2693 70.7532L80.8112 63.58ZM72.9645 60.1666H11.7396V68.1666H72.9645V60.1666ZM11.7396 60.1666C4.15142 60.1666 -2 66.318 -2 73.9062H6C6 70.7363 8.5697 68.1666 11.7396 68.1666V60.1666ZM-2 73.9062C-2 81.4944 4.15143 87.6458 11.7396 87.6458V79.6458C8.5697 79.6458 6 77.0761 6 73.9062H-2ZM11.7396 87.6458H111.26V79.6458H11.7396V87.6458ZM111.26 87.6458C118.849 87.6458 125 81.4944 125 73.9062H117C117 77.0761 114.43 79.6458 111.26 79.6458V87.6458ZM125 73.9062C125 66.318 118.849 60.1666 111.26 60.1666V68.1666C114.43 68.1666 117 70.7363 117 73.9062H125ZM111.26 60.1666H102.319V68.1666H111.26V60.1666ZM99.5105 61.3182L96.4676 64.3182L102.084 70.0151L105.127 67.0151L99.5105 61.3182ZM111.26 63.1666H99.2759V71.1666H111.26V63.1666ZM122 73.9062C122 67.9749 117.192 63.1666 111.26 63.1666V71.1666C112.773 71.1666 114 72.3932 114 73.9062H122ZM111.26 84.6458C117.192 84.6458 122 79.8375 122 73.9062H114C114 75.4192 112.773 76.6458 111.26 76.6458V84.6458ZM11.7396 84.6458H111.26V76.6458H11.7396V84.6458ZM1 73.9062C1 79.8375 5.80828 84.6458 11.7396 84.6458V76.6458C10.2266 76.6458 9 75.4192 9 73.9062H1ZM11.7396 63.1666C5.80828 63.1666 1 67.9749 1 73.9062H9C9 72.3932 10.2266 71.1666 11.7396 71.1666V63.1666ZM79.0402 63.1666H11.7396V71.1666H79.0402V63.1666Z" fill="#FFCC82" mask="url(#path-16-inside-3)"/>
<path d="M72.0654 65.8854L95.2105 75.3251" stroke="#FFCC82" stroke-width="4"/>
<path d="M93.1963 75.625L103.206 65.3125" stroke="#FFCC82" stroke-width="4"/>
<path d="M10.7079 67H75L74.2921 81H10L10.7079 67Z" fill="#FFCC82"/>
<rect x="103" y="66" width="10" height="16" fill="#FFCC82"/>
<ellipse cx="111" cy="74" rx="7" ry="8" fill="#FFCC82"/>
<ellipse cx="9.5" cy="74" rx="5.5" ry="7" fill="#FFCC82"/>
<path d="M104.166 64.4631L106.558 82.8743L92.1624 78.3233L104.166 64.4631Z" fill="#FFCC82"/>
<path d="M82.5 70L104 82H61L82.5 70Z" fill="#FFCC82"/>
<path d="M82.0037 70.6513L73.7689 75.132L73.6994 66.3091L82.0037 70.6513Z" fill="#FFCC82"/>
</svg>
