<svg width="123" height="119" viewBox="0 0 123 119" fill="none" xmlns="http://www.w3.org/2000/svg">
<path d="M110.669 31.9262L112.173 33.7928C118.478 41.6211 114.961 53.336 105.391 56.3852M86.989 9.06843L91.4998 7.38701C107.153 1.55204 121.03 19.331 111.606 33.147M65.939 28.8239L65.3871 26.8032C61.597 12.9262 77.1425 1.84787 88.9801 9.98979M64.2491 47.6202L62.4896 45.5219C57.5964 39.6863 59.3646 30.8219 66.1215 27.3146M64.6822 55.5837L95.1604 23.8704M75.4994 45.8141L78.4495 45.5916C82.8603 45.2591 87.1163 47.3042 89.6176 50.9581M84.8773 35.6331L87.8274 35.4106C92.2382 35.0781 96.4941 37.1232 98.9955 40.7772M84.6475 24.6719L85.6634 26.5472C87.399 29.7513 86.8425 33.7124 84.2911 36.3136M73.1549 34.0684L74.5095 35.6129C77.8289 39.3977 76.9841 45.2521 72.7301 47.9431M30.9544 14.3944L30.0348 14.2957C26.1423 13.8778 22.7488 16.9327 22.7488 20.8545M47.7963 38.1794V18.799M48.6175 30.3415L50.0265 28.886C52.5417 26.2879 56.2718 25.2696 59.7537 26.2306M39.2143 25.3147L41.2813 25.8628C44.8985 26.8219 47.7468 29.6154 48.7812 33.2182M30.0753 14.6881L32.9449 10.9693C41.9949 -0.758659 60.0867 0.580736 67.3126 13.5137M61.4591 116.39C22.1361 116.39 4.77441 88.9854 3 54.036H119.918C118.144 88.9854 100.782 116.39 61.4591 116.39ZM35.0573 50.2187C35.0573 57.5165 30.2026 63.4326 24.2141 63.4326C18.2256 63.4326 13.3709 57.5165 13.3709 50.2187C13.3709 42.9209 18.2256 37.0048 24.2141 37.0048C30.2026 37.0048 35.0573 42.9209 35.0573 50.2187ZM64.7745 50.5123C64.7745 57.4858 57.5581 64.9008 48.6563 64.9008C39.7544 64.9008 34.0033 60.7159 34.0033 53.7424C34.0033 46.7689 39.7544 37.8857 48.6563 37.8857C57.5581 37.8857 64.7745 43.5389 64.7745 50.5123ZM37.9879 38.473C37.9879 50.3117 29.2842 62.1405 22.1627 62.1405C15.0412 62.1405 8.09585 54.1291 8.09585 42.2904C8.09585 30.4517 15.0412 19.2688 22.1627 19.2688C29.2842 19.2688 37.9879 26.6343 37.9879 38.473Z" stroke="#FFCC82" stroke-width="4"/>
</svg>
