<svg width="239" height="148" viewBox="0 0 239 148" fill="none" xmlns="http://www.w3.org/2000/svg">
<path d="M237 74C237 93.4871 224.238 111.441 202.946 124.626C181.685 137.791 152.188 146 119.5 146C86.8125 146 57.3148 137.791 36.0537 124.626C14.7619 111.441 2 93.4871 2 74C2 54.5129 14.7619 36.5594 36.0537 23.3745C57.3148 10.2086 86.8125 2 119.5 2C152.188 2 181.685 10.2086 202.946 23.3745C224.238 36.5594 237 54.5129 237 74Z" stroke="#FFCC82" stroke-width="4"/>
<path d="M159 15C159 16.391 158.222 17.8477 156.522 19.2997C154.825 20.7485 152.31 22.0984 149.116 23.2518C142.736 25.5557 133.857 27 124 27C114.143 27 105.264 25.5557 98.8838 23.2518C95.6897 22.0984 93.1753 20.7485 91.4784 19.2997C89.7776 17.8477 89 16.391 89 15C89 13.609 89.7776 12.1523 91.4784 10.7003C93.1753 9.25155 95.6897 7.90161 98.8838 6.74817C105.264 4.44432 114.143 3 124 3C133.857 3 142.736 4.44432 149.116 6.74817C152.31 7.90161 154.825 9.25155 156.522 10.7003C158.222 12.1523 159 13.609 159 15Z" stroke="#FFCC82" stroke-width="2"/>
<ellipse cx="124" cy="16.5" rx="33" ry="9.5" fill="#FFCC82"/>
<path d="M69.063 77.9674C69.063 77.9674 69.063 77.9674 69.063 77.9674C69.0212 78.6412 69 79.3189 69 80.0001C69 83.1756 69.4601 86.2773 70.3286 89.2516C70.6221 90.3772 70.9674 91.4542 71.3653 92.493C72.917 96.544 75.2467 99.9567 78.3239 103.369L78.4222 103.28C79.2918 104.265 80.2198 105.251 81.205 106.253L81.2256 106.274L81.2474 106.294C89.1835 113.469 100.369 118 113 118C124.244 118 134.342 114.41 142.022 108.56L142.958 107.848L142.104 107.039C134.571 99.9018 130 90.4046 130 80.0001C130 69.5955 134.571 60.0983 142.104 52.9614L142.958 52.1526L142.022 51.44C138.935 49.0888 135.462 47.1716 131.686 45.7182C136.453 46.4402 140.435 47.6395 143.881 50.356L144.5 50.844L145.119 50.356C153.273 43.9285 164.101 40.0001 176 40.0001C201.538 40.0001 222 58.0326 222 80.0001C222 101.968 201.538 120 176 120C164.101 120 153.273 116.072 145.119 109.644L144.5 109.156L143.881 109.644C135.727 116.072 124.899 120 113 120C99.6366 120 87.6263 115.045 79.2355 107.162L78.6725 106.634L78.0185 107.045C71.0416 111.431 62.6008 114 53.5 114C29.3969 114 10 96.0159 10 74.0001C10 51.9842 29.3969 34.0001 53.5 34.0001C66.2055 34.0001 77.6237 39.0075 85.5684 46.9741L86.1221 47.5294L86.7935 47.1239C90.4964 44.8873 93.8096 43.6216 97.3374 43.0265C100.041 42.5704 102.899 42.5031 106.195 42.7173C106.269 42.7336 106.343 42.7498 106.418 42.766C99.8386 43.497 93.7665 45.3602 88.5054 48.4193L88.4854 48.431L88.4659 48.4435C87.2897 49.2025 86.1725 49.9773 85.113 50.7657M69.063 77.9674C69.4625 71.5269 71.7486 65.4481 75.4752 60.1868C77.9162 56.9298 81.102 53.7501 85.113 50.7657M69.063 77.9674C69.0629 77.9783 69.0629 77.9892 69.0629 78.0001L69.063 77.9674ZM85.113 50.7657L85.0366 50.6588M85.113 50.7657L85.0366 50.6588M85.0366 50.6588C79.6721 54.4915 75.6862 59.1169 73.0377 63.8796L85.0366 50.6588ZM76.2205 105.812L77.2485 105.194L76.4558 104.294C70.5139 97.5463 67 89.1237 67 80.0001C67 67.7219 73.3683 56.6996 83.4603 49.339L84.4218 48.6376L83.5653 47.8113C76.0478 40.5595 65.421 36.0001 53.5 36.0001C30.3416 36.0001 12 53.2422 12 74.0001C12 94.7579 30.3416 112 53.5 112C61.9359 112 69.7238 109.717 76.2205 105.812ZM95.6838 36.315C91.5292 32.9813 89.9541 27.7172 88.9974 18H158.791C157.694 27.5964 153.882 34.3536 147.804 38.4756C143.173 41.6165 137.134 43.2915 129.782 43.4432C127.905 43.2163 125.962 43.038 123.935 42.852C119.621 42.456 114.929 42.0253 109.689 41.018L109.647 41.0099L109.605 41.0055C108.525 40.8918 107.485 40.7993 106.477 40.7316C105.96 40.6168 105.459 40.4989 104.973 40.3775C100.823 39.3403 97.8607 38.0618 95.6838 36.315ZM146.394 51.44L146.357 51.4679L146.323 51.4991C145.065 52.6549 144.051 53.8123 143.123 54.9295C139.571 58.387 136.739 62.3651 134.822 66.7138C132.905 70.8279 132 75.1354 132 80.0001C132 80.5099 132.012 81.0178 132.035 81.5238C132.038 83.9249 132.485 86.4085 133.207 88.8226C133.761 90.8213 134.5 92.764 135.407 94.6347C136.874 97.7586 138.766 100.681 140.988 103.225C141.324 103.616 141.656 103.98 141.982 104.314C143.521 105.928 145.204 107.368 147.001 108.578C154.679 114.417 164.767 118 176 118C200.702 118 220 100.612 220 80.0001C220 59.3885 200.702 42.0001 176 42.0001C164.769 42.0001 154.084 45.5831 146.394 51.44Z" stroke="#FFCC82" stroke-width="2"/>
<ellipse cx="53.5" cy="74.5" rx="42.5" ry="37.5" fill="#FFCC82"/>
<ellipse cx="113" cy="77.5" rx="43" ry="40.5" fill="#FFCC82"/>
<ellipse cx="177.5" cy="80.5" rx="45.5" ry="40.5" fill="#FFCC82"/>
<path d="M91 73.7483C91 91.545 74.3573 110 53.8276 110C33.2978 110 14 91.545 14 73.7483C14 55.9516 33.2978 38 53.8276 38C74.3573 38 91 55.9516 91 73.7483Z" fill="#E6EEF3"/>
<ellipse cx="111" cy="80" rx="38" ry="39" fill="#E6EEF3"/>
<path d="M216 79.5C216 99.1061 199.435 115 179 115C148 118.5 142 99.1061 142 79.5C142 59.8939 150 41.0001 179 44C199.435 44 216 59.8939 216 79.5Z" fill="#E6EEF3"/>
<path d="M150 79C150 101.137 132.494 119 111 119C89.5061 119 72 101.137 72 79C72 56.8629 89.5061 39 111 39C132.494 39 150 56.8629 150 79Z" stroke="#FFCC82" stroke-width="4"/>
</svg>
