<svg width="156" height="103" viewBox="0 0 156 103" fill="none" xmlns="http://www.w3.org/2000/svg">
<path d="M56.9305 22.6489V22.6489C58.9207 26.9839 64.9259 27.3829 67.4721 23.3494L67.9142 22.6489" stroke="#FFCC82"/>
<path d="M56.9305 22.9541V22.9541C56.9154 21.5124 58.3793 20.5102 59.7046 21.055L62.1014 22.0403" stroke="#FFCC82"/>
<path d="M61.5552 22.3436L64.4021 21.1102C65.8664 20.4757 67.5657 21.3679 67.9142 22.9542V22.9542" stroke="#FFCC82"/>
<rect x="58.6648" y="21.7332" width="7.51519" height="3.0526" fill="#FFCC82"/>
<ellipse rx="3.63307" ry="2.027" transform="matrix(0.829769 0.558106 -0.516414 0.856339 60.4138 23.665)" fill="#FFCC82"/>
<ellipse rx="3.6238" ry="2.03193" transform="matrix(-0.858183 0.513344 -0.472634 -0.881259 64.4693 23.5524)" fill="#FFCC82"/>
<path d="M74.8513 15.7924V15.7924C76.8415 20.1274 82.8467 20.5264 85.3929 16.4928L85.8351 15.7924" stroke="#FFCC82"/>
<path d="M74.8513 16.0976V16.0976C74.8363 14.6558 76.3002 13.6536 77.6255 14.1984L80.0223 15.1837" stroke="#FFCC82"/>
<path d="M79.4761 15.4871L82.3229 14.2536C83.7873 13.6192 85.4865 14.5113 85.8351 16.0976V16.0976" stroke="#FFCC82"/>
<rect x="76.5856" y="14.8766" width="7.51519" height="3.0526" fill="#FFCC82"/>
<ellipse rx="3.63307" ry="2.027" transform="matrix(0.829769 0.558106 -0.516414 0.856339 78.3346 16.8085)" fill="#FFCC82"/>
<ellipse rx="3.6238" ry="2.03193" transform="matrix(-0.858183 0.513344 -0.472634 -0.881259 82.3901 16.6959)" fill="#FFCC82"/>
<path d="M84.6789 28.6133V28.6133C86.6691 32.9483 92.6743 33.3473 95.2205 29.3137L95.6626 28.6133" stroke="#FFCC82"/>
<path d="M84.6789 28.9185V28.9185C84.6638 27.4767 86.1277 26.4746 87.453 27.0193L89.8498 28.0046" stroke="#FFCC82"/>
<path d="M89.3036 28.308L92.1505 27.0745C93.6148 26.4401 95.3141 27.3322 95.6626 28.9185V28.9185" stroke="#FFCC82"/>
<rect x="86.4132" y="27.6975" width="7.51519" height="3.0526" fill="#FFCC82"/>
<ellipse rx="3.63307" ry="2.027" transform="matrix(0.829769 0.558106 -0.516414 0.856339 88.1622 29.6294)" fill="#FFCC82"/>
<ellipse rx="3.6238" ry="2.03193" transform="matrix(-0.858183 0.513344 -0.472634 -0.881259 92.2177 29.5169)" fill="#FFCC82"/>
<path d="M108.381 24.9502V24.9502C110.371 29.2852 116.376 29.6842 118.922 25.6506L119.364 24.9502" stroke="#FFCC82"/>
<path d="M108.381 25.2554V25.2554C108.366 23.8136 109.829 22.8115 111.155 23.3563L113.552 24.3415" stroke="#FFCC82"/>
<path d="M113.005 24.6449L115.852 23.4115C117.317 22.777 119.016 23.6692 119.364 25.2554V25.2554" stroke="#FFCC82"/>
<rect x="110.115" y="24.0344" width="7.51519" height="3.0526" fill="#FFCC82"/>
<ellipse rx="3.63307" ry="2.027" transform="matrix(0.829769 0.558106 -0.516414 0.856339 111.864 25.9663)" fill="#FFCC82"/>
<ellipse rx="3.6238" ry="2.03193" transform="matrix(-0.858183 0.513344 -0.472634 -0.881259 115.919 25.8538)" fill="#FFCC82"/>
<path d="M37.2754 15.7924V15.7924C39.2656 20.1274 45.2708 20.5264 47.817 16.4928L48.2592 15.7924" stroke="#FFCC82"/>
<path d="M37.2754 16.0976V16.0976C37.2604 14.6558 38.7242 13.6536 40.0495 14.1984L42.4463 15.1837" stroke="#FFCC82"/>
<path d="M41.9001 15.4871L44.747 14.2536C46.2113 13.6192 47.9106 14.5113 48.2591 16.0976V16.0976" stroke="#FFCC82"/>
<rect x="39.0097" y="14.8766" width="7.51519" height="3.0526" fill="#FFCC82"/>
<ellipse rx="3.63307" ry="2.027" transform="matrix(0.829769 0.558106 -0.516414 0.856339 40.7587 16.8085)" fill="#FFCC82"/>
<ellipse rx="3.6238" ry="2.03193" transform="matrix(-0.858183 0.513344 -0.472634 -0.881259 44.8142 16.6959)" fill="#FFCC82"/>
<line x1="5.74611" y1="13.1859" x2="5.74611" y2="71.7959" stroke="#FFCC82" stroke-width="4"/>
<line y1="-2" x2="77.3808" y2="-2" transform="matrix(0.9189 0.394491 -0.35922 0.933253 4.9023 71.7958)" stroke="#FFCC82" stroke-width="4"/>
<line y1="-2" x2="71.5949" y2="-2" transform="matrix(0.977012 -0.213186 0.191997 0.981395 76.0075 102.322)" stroke="#FFCC82" stroke-width="4"/>
<path d="M146.246 87.0588L145.653 40.0679" stroke="#FFCC82" stroke-width="4"/>
<path d="M4.03515 14.4069L68.3056 2.21258" stroke="#FFCC82" stroke-width="4"/>
<path d="M67.9142 2.19649L145.105 24.2182" stroke="#FFCC82" stroke-width="4"/>
<path d="M5.60181 14.1299C15.4626 28.1703 22.8179 29.7081 36.8187 29.3929" stroke="#FFCC82" stroke-width="4"/>
<path d="M35.6643 29.0593L37.2812 31.2424C43.4356 39.5516 53.6797 43.4826 63.4127 41.2697V41.2697" stroke="#FFCC82" stroke-width="4"/>
<path d="M62.4224 40.9645L63.1991 41.599C72.0819 48.8562 84.2664 50.3913 94.5064 45.5434V45.5434" stroke="#FFCC82" stroke-width="4"/>
<path d="M93.8984 45.2397L94.8263 45.8851C102.495 51.2186 113.024 49.7448 119.075 42.4908V42.4908" stroke="#FFCC82" stroke-width="4"/>
<path d="M117.913 42.7345L125.254 44.7994C132.576 46.8594 140.479 44.8128 145.957 39.4382V39.4382" stroke="#FFCC82" stroke-width="4"/>
<path d="M144.511 23.87L145.241 24.4323C150.323 28.3485 150.39 36.0015 145.378 40.0488V40.0488" stroke="#FFCC82" stroke-width="4"/>
<path d="M4.66682 28.4541V28.4541C11.787 40.0124 25.0714 45.9568 37.9055 43.3276L39.0097 43.1013" stroke="#FFCC82" stroke-width="4"/>
<path d="M37.8535 43.1013L39.781 46.26C45.0008 54.814 54.9226 59.0105 64.2531 56.6108V56.6108" stroke="#FFCC82" stroke-width="4"/>
<path d="M63.2895 55.9222L65.4965 59.2825C72.112 69.3551 86.5002 70.1217 93.843 60.7928V60.7928" stroke="#FFCC82" stroke-width="4"/>
<path d="M92.7722 60.8064V60.8064C99.8857 64.9435 108.844 64.3392 115.491 59.2739L119.336 56.3433" stroke="#FFCC82" stroke-width="4"/>
<path d="M118.208 56.5327V56.5327C126.6 62.1478 137.718 61.5527 145.545 55.0694L145.993 54.6988" stroke="#FFCC82" stroke-width="4"/>
<path d="M5.52248 45.5435V45.5435C12.6426 57.1017 25.927 63.0461 38.7611 60.4169L39.8653 60.1907" stroke="#FFCC82" stroke-width="4"/>
<path d="M38.7092 60.1907L40.6366 63.3493C45.8565 71.9033 55.7783 76.0999 65.1087 73.7001V73.7001" stroke="#FFCC82" stroke-width="4"/>
<path d="M64.1452 73.0116L66.3521 76.3718C72.9677 86.4444 87.3559 87.211 94.6987 77.8822V77.8822" stroke="#FFCC82" stroke-width="4"/>
<path d="M93.6278 77.8958V77.8958C100.741 82.0328 109.7 81.4285 116.346 76.3632L120.191 73.4326" stroke="#FFCC82" stroke-width="4"/>
<path d="M119.064 73.6222V73.6222C127.456 79.2373 138.574 78.6421 146.401 72.1589L146.848 71.7883" stroke="#FFCC82" stroke-width="4"/>
</svg>
